#!OML:ASF F:\VICON\USERDATA\INSTALL\rory3\rory3.ASF
:FULLY-SPECIFIED
:DEGREES
5211
root -3.86502 14.2993 -15.2263 -544.924 2.41142 535.322
lowerback 19.1684 -2.7632 -10.8264
upperback 1.55602 -5.42063 2.39046
thorax -7.74302 -2.0912 10.1434
lowerneck -14.7441 -8.02527 -3.53059
upperneck 20.1507 -10.1069 0.911932
head 8.97078 -4.77132 -0.318727
rclavicle -1.48095e-014 -1.59028e-015
rhumerus 42.3443 18.646 -51.9614
rradius 78.053
rwrist -61.0183
rhand -3.8295 11.9385
rfingers 7.12502
rthumb 21.9177 -16.84
lclavicle -1.48095e-014 -1.59028e-015
lhumerus 64.259 -62.4843 37.8941
lradius 81.6114
lwrist 99.7183
lhand 1.58478 35.6117
lfingers 7.12502
lthumb 27.1074 63.6854
rfemur -47.5885 5.68369 4.48242
rtibia 51.9585
rfoot 1.46561 7.79319
rtoes -31.5735
lfemur -6.99992 25.1775 -15.6262
ltibia 59.5823
lfoot -38.1453 4.28131
ltoes -10.7068
5212
root -3.87851 14.2996 -15.2049 -545.007 2.54133 535.49
lowerback 19.1835 -2.72006 -10.6745
upperback 1.58666 -5.3236 2.43474
thorax -7.75032 -2.04796 10.0848
lowerneck -14.4344 -8.03278 -3.64113
upperneck 20.0196 -10.127 1.06013
head 8.88498 -4.7768 -0.238686
rclavicle 2.68359e-014 -1.11319e-014
rhumerus 42.1954 18.7149 -52.0379
rradius 78.3154
rwrist -60.9087
rhand -3.60396 12.3087
rfingers 7.12502
rthumb 22.1342 -16.4443
lclavicle 2.68359e-014 -1.11319e-014
lhumerus 64.3723 -62.5866 37.6581
lradius 81.6465
lwrist 99.6488
lhand 1.587 35.6209
lfingers 7.12502
lthumb 27.1095 63.6942
rfemur -47.4431 5.96416 4.59891
rtibia 51.5938
rfoot 1.73945 7.61202
rtoes -31.0752
lfemur -7.05492 25.3993 -15.3823
ltibia 59.7632
lfoot -38.1654 4.08118
ltoes -10.4518
5213
root -3.89114 14.3024 -15.1797 -545.11 2.68586 535.857
lowerback 19.2803 -2.68749 -10.338
upperback 1.63057 -5.19883 2.54177
thorax -7.80411 -1.99148 9.99161
lowerneck -13.9214 -7.97586 -3.80381
upperneck 19.4776 -10.0981 1.38782
head 8.63444 -4.75887 -0.0688185
rclavicle -7.35503e-015 7.95139e-016
rhumerus 41.6925 18.7748 -52.0268
rradius 77.9862
rwrist -60.8838
rhand -3.26363 13.3772
rfingers 7.12502
rthumb 22.4609 -15.3367
lclavicle -7.35503e-015 7.95139e-016
lhumerus 64.6015 -62.6083 37.3518
lradius 81.6762
lwrist 99.7995
lhand 1.39202 35.7546
lfingers 7.12502
lthumb 26.923 63.8568
rfemur -47.2332 6.38922 4.92009
rtibia 51.2099
rfoot 1.97754 7.36239
rtoes -31.3265
lfemur -7.11352 25.6697 -14.8625
ltibia 60.0132
lfoot -38.2024 3.87866
ltoes -10.2544
5214
root -3.8997 14.2983 -15.15 -545.198 2.82793 536.075
lowerback 19.4556 -2.60967 -10.2019
upperback 1.6448 -5.07047 2.62021
thorax -7.91891 -1.9213 9.99014
lowerneck -13.4205 -7.93821 -3.90173
upperneck 18.9529 -10.0904 1.63061
head 8.38573 -4.75502 0.0583202
rclavicle 3.26007e-014 0
rhumerus 41.3301 18.7966 -52.095
rradius 77.8146
rwrist -60.5618
rhand -3.13765 14.269
rfingers 7.12502
rthumb 22.5819 -14.4302
lclavicle 3.26007e-014 0
lhumerus 64.9081 -62.6902 36.9894
lradius 81.7191
lwrist 99.9866
lhand 1.05474 35.7314
lfingers 7.12502
lthumb 26.6002 63.8831
rfemur -47.093 6.78633 5.08482
rtibia 50.8348
rfoot 2.27116 7.16731
rtoes -31.6022
lfemur -7.33658 25.8511 -14.568
ltibia 60.3061
lfoot -38.1967 3.6009
ltoes -8.94576
5215
root -3.91266 14.2939 -15.1232 -545.332 2.95382 536.124
lowerback 19.5642 -2.55091 -10.2132
upperback 1.72332 -4.98797 2.65471
thorax -7.90499 -1.87993 10.0224
lowerneck -13.4816 -7.95863 -3.98663
upperneck 18.9356 -10.1136 1.69326
head 8.39984 -4.76645 0.0866534
rclavicle -8.33902e-014 1.59028e-014
rhumerus 41.3991 18.7226 -52.3122
rradius 77.8488
rwrist -60.3868
rhand -2.80368 14.2846
rfingers 7.12502
rthumb 22.9024 -14.3753
lclavicle -8.33902e-014 1.59028e-014
lhumerus 65.1355 -62.7499 36.6956
lradius 81.7111
lwrist 100.039
lhand 0.765797 35.6111
lfingers 7.12502
lthumb 26.3237 63.8044
rfemur -46.9341 7.08873 5.05899
rtibia 50.5051
rfoot 2.54802 7.04221
rtoes -31.5516
lfemur -7.50378 25.9122 -14.5547
ltibia 60.5295
lfoot -38.1362 3.60306
ltoes -8.41887
5216
root -3.93054 14.2966 -15.1043 -545.425 2.94998 536.217
lowerback 19.5582 -2.577 -10.0841
upperback 1.78141 -4.981 2.68374
thorax -7.84663 -1.88453 9.97408
lowerneck -13.3543 -7.99133 -4.11817
upperneck 18.8248 -10.1485 1.76687
head 8.35241 -4.78882 0.134144
rclavicle 2.39536e-014 -1.98785e-014
rhumerus 41.4581 18.7097 -52.5186
rradius 78.0042
rwrist -60.2696
rhand -2.62317 14.1483
rfingers 7.12502
rthumb 23.0756 -14.4901
lclavicle 2.39536e-014 -1.98785e-014
lhumerus 64.9487 -62.8341 36.9064
lradius 81.5803
lwrist 99.9459
lhand 0.848885 35.8484
lfingers 7.12502
lthumb 26.4032 64.0298
rfemur -46.7089 7.18505 5.06496
rtibia 50.211
rfoot 2.69431 6.96651
rtoes -31.426
lfemur -7.54455 25.8598 -14.5634
ltibia 60.6504
lfoot -38.1773 3.7208
ltoes -8.62418
5217
root -3.94341 14.2949 -15.087 -545.518 2.89165 536.343
lowerback 19.554 -2.57023 -9.91973
upperback 1.79712 -4.92731 2.7352
thorax -7.84885 -1.86243 9.92383
lowerneck -13.086 -7.97134 -4.14316
upperneck 18.7238 -10.0998 1.68329
head 8.26583 -4.77917 0.130015
rclavicle 1.2424e-014 7.95139e-015
rhumerus 41.2066 18.6707 -52.5359
rradius 78.2857
rwrist -60.1299
rhand -2.73616 13.8568
rfingers 7.12502
rthumb 22.9672 -14.795
lclavicle 1.2424e-014 7.95139e-015
lhumerus 65.2332 -62.9163 36.6513
lradius 81.5122
lwrist 99.9341
lhand 0.990619 35.8488
lfingers 7.12502
lthumb 26.5389 64.0098
rfemur -46.4988 7.21894 5.12687
rtibia 49.9646
rfoot 2.78718 6.88969
rtoes -31.2589
lfemur -7.43733 25.8371 -14.4394
ltibia 60.6976
lfoot -38.2622 3.47943
ltoes -8.42818
5218
root -3.95337 14.2881 -15.0646 -545.639 2.96519 536.394
lowerback 19.6563 -2.49551 -9.89334
upperback 1.78436 -4.82727 2.78333
thorax -7.94017 -1.80562 9.95163
lowerneck -12.7975 -7.94427 -4.26868
upperneck 18.6108 -10.0426 1.70365
head 8.18301 -4.76209 0.177172
rclavicle -4.72114e-014 1.74931e-014
rhumerus 40.8728 18.7277 -52.479
rradius 78.5223
rwrist -60.0176
rhand -2.71628 13.7921
rfingers 7.12502
rthumb 22.9862 -14.8573
lclavicle -4.72114e-014 1.74931e-014
lhumerus 65.2465 -63.0207 36.5556
lradius 81.6441
lwrist 100.16
lhand 0.776993 35.8772
lfingers 7.12502
lthumb 26.3344 64.0689
rfemur -46.3868 7.43432 5.11379
rtibia 49.7422
rfoot 2.92971 6.83455
rtoes -32.2952
lfemur -7.35775 25.9579 -14.3501
ltibia 60.727
lfoot -38.2634 3.17483
ltoes -8.13967
5219
root -3.96992 14.2862 -15.0412 -545.651 3.02449 536.386
lowerback 19.6827 -2.47627 -9.85691
upperback 1.74172 -4.80205 2.78821
thorax -8.01121 -1.78896 9.93605
lowerneck -12.52 -7.89931 -4.45751
upperneck 18.4524 -9.99016 1.91717
head 8.10129 -4.73383 0.296326
rclavicle -3.98563e-014 7.15625e-015
rhumerus 40.7427 18.8295 -52.6119
rradius 78.5661
rwrist -59.9099
rhand -2.7541 14.1385
rfingers 7.12502
rthumb 22.9499 -14.5155
lclavicle -3.98563e-014 7.15625e-015
lhumerus 65.2321 -63.1394 36.4426
lradius 81.7486
lwrist 100.571
lhand 0.0889412 35.6299
lfingers 7.12502
lthumb 25.6756 63.9183
rfemur -46.3804 7.59039 4.991
rtibia 49.5264
rfoot 3.06781 6.74948
rtoes -32.794
lfemur -7.45203 26.1188 -14.4174
ltibia 60.7582
lfoot -38.2171 3.35448
ltoes -8.68477
5220
root -3.99628 14.2887 -15.0238 -545.612 2.9515 536.193
lowerback 19.5201 -2.48547 -9.81474
upperback 1.73694 -4.80349 2.6952
thorax -7.9402 -1.80026 9.79165
lowerneck -12.7213 -7.87183 -4.22835
upperneck 18.6899 -9.93184 1.62899
head 8.18628 -4.71076 0.161629
rclavicle 1.28912e-013 -7.4743e-014
rhumerus 40.6325 18.7964 -52.7916
rradius 78.6287
rwrist -59.7843
rhand -2.81714 14.2483
rfingers 7.12502
rthumb 22.8895 -14.4131
lclavicle 1.28912e-013 -7.4743e-014
lhumerus 65.6901 -63.2896 35.8837
lradius 81.8874
lwrist 100.751
lhand -0.290081 35.4452
lfingers 7.12502
lthumb 25.3125 63.7856
rfemur -46.3593 7.39073 4.67893
rtibia 49.3181
rfoot 3.19573 6.88557
rtoes -32.7072
lfemur -7.56229 26.0736 -14.8235
ltibia 60.7346
lfoot -38.2288 3.18576
ltoes -7.23466
5221
root -4.01745 14.2899 -15.0008 -545.637 2.80147 536.072
lowerback 19.5333 -2.502 -9.78287
upperback 1.74209 -4.82393 2.63521
thorax -7.94521 -1.81142 9.71055
lowerneck -12.8982 -7.86259 -4.10627
upperneck 18.8301 -9.91546 1.51285
head 8.25122 -4.7013 0.0969623
rclavicle -2.83268e-014 9.54166e-015
rhumerus 40.4423 18.7456 -52.873
rradius 78.8713
rwrist -59.7414
rhand -2.8198 14.226
rfingers 7.12502
rthumb 22.8869 -14.4358
lclavicle -2.83268e-014 9.54166e-015
lhumerus 65.9689 -63.3924 35.5349
lradius 81.9298
lwrist 100.595
lhand -0.332673 35.4839
lfingers 7.12502
lthumb 25.2717 63.83
rfemur -46.2197 7.22415 4.44534
rtibia 49.0463
rfoot 3.42483 6.91706
rtoes -32.2471
lfemur -7.7042 25.9195 -15.1337
ltibia 60.774
lfoot -38.2252 2.93838
ltoes -6.28663
5222
root -4.03012 14.2927 -14.9751 -545.697 2.67197 536.111
lowerback 19.5825 -2.49605 -9.73812
upperback 1.77626 -4.80182 2.65317
thorax -7.94079 -1.80107 9.70205
lowerneck -12.5467 -7.87986 -4.37133
upperneck 18.3673 -9.99843 1.99758
head 8.07732 -4.7257 0.308673
rclavicle -7.95139e-016 2.22639e-014
rhumerus 40.3156 18.6441 -52.8163
rradius 79.2798
rwrist -59.7691
rhand -2.88086 14.1965
rfingers 7.12502
rthumb 22.8283 -14.4725
lclavicle -7.95139e-016 2.22639e-014
lhumerus 66.3276 -63.4697 35.1786
lradius 81.8794
lwrist 100.554
lhand -0.217262 35.5104
lfingers 7.12502
lthumb 25.3823 63.8409
rfemur -45.9428 7.33105 4.35661
rtibia 48.5913
rfoot 3.72233 6.65984
rtoes -31.602
lfemur -7.87464 25.7926 -15.2211
ltibia 60.9175
lfoot -38.2098 3.02781
ltoes -6.52777
5223
root -4.04019 14.2996 -14.9531 -545.901 2.57869 536.573
lowerback 19.7246 -2.53838 -9.28889
upperback 1.8695 -4.7388 2.78003
thorax -7.95411 -1.77863 9.57728
lowerneck -12.7046 -7.87476 -4.31103
upperneck 18.5299 -9.97551 1.88769
head 8.14971 -4.71587 0.256962
rclavicle -4.36332e-014 1.90833e-014
rhumerus 40.3068 18.5859 -52.8112
rradius 79.7521
rwrist -59.7317
rhand -3.20258 13.9616
rfingers 7.12502
rthumb 22.5195 -14.7452
lclavicle -4.36332e-014 1.90833e-014
lhumerus 66.6562 -63.5677 34.907
lradius 81.7217
lwrist 100.102
lhand 0.444704 35.746
lfingers 7.12502
lthumb 26.0163 63.9848
rfemur -45.3432 7.62162 4.75997
rtibia 47.9629
rfoot 3.95024 6.36493
rtoes -31.737
lfemur -7.80515 25.7794 -14.6241
ltibia 61.1384
lfoot -38.2307 3.00011
ltoes -6.49505
5224
root -4.05538 14.3099 -14.9293 -546.339 2.60894 537.95
lowerback 20.199 -2.69837 -7.89696
upperback 2.03208 -4.59418 3.13198
thorax -8.14538 -1.72163 9.16483
lowerneck -13.1218 -7.88413 -4.04803
upperneck 19.0632 -9.92085 1.38414
head 8.35955 -4.70444 0.0316595
rclavicle -4.32357e-014 3.89618e-014
rhumerus 40.1551 18.6334 -52.9399
rradius 79.9171
rwrist -59.4357
rhand -3.43634 13.8476
rfingers 7.12502
rthumb 22.2951 -14.8862
lclavicle -4.32357e-014 3.89618e-014
lhumerus 66.6684 -63.701 34.9397
lradius 81.5657
lwrist 99.6795
lhand 0.85603 35.8349
lfingers 7.12502
lthumb 26.41 64.0153
rfemur -44.2429 8.04243 6.2462
rtibia 47.1564
rfoot 4.19472 6.01701
rtoes -32.4215
lfemur -7.47678 25.8462 -12.7595
ltibia 61.5414
lfoot -38.3403 2.50866
ltoes -5.89605
5225
root -4.07122 14.3174 -14.9065 -546.608 2.72202 538.65
lowerback 20.3496 -2.74663 -7.16928
upperback 2.19763 -4.4495 3.30342
thorax -8.11581 -1.66584 8.90234
lowerneck -13.235 -7.89136 -3.97258
upperneck 19.1892 -9.91162 1.2405
head 8.41 -4.7052 -0.0329895
rclavicle -8.87574e-014 4.77083e-015
rhumerus 39.9334 18.5561 -53.1996
rradius 79.7592
rwrist -59.1501
rhand -3.24099 14.3282
rfingers 7.12502
rthumb 22.4827 -14.383
lclavicle -8.87574e-014 4.77083e-015
lhumerus 67.0074 -63.7684 34.6004
lradius 81.6539
lwrist 100.046
lhand 0.123537 35.8511
lfingers 7.12502
lthumb 25.7087 64.1348
rfemur -43.6417 8.38604 6.97808
rtibia 46.617
rfoot 4.42313 5.75896
rtoes -32.4817
lfemur -7.33972 25.945 -11.8167
ltibia 61.8041
lfoot -38.3721 2.09741
ltoes -5.59668
